<svg xmlns="http://www.w3.org/2000/svg" viewBox="0 0 250 250"><title>Artboard 1</title><ellipse cx="143.94" cy="174.37" rx="43.52" ry="43.51" fill="none" stroke="#007369" stroke-miterlimit="10" stroke-width="6"/><line x1="187.47" y1="174.38" x2="187.47" y2="250.04" fill="none" stroke="#007369" stroke-miterlimit="10" stroke-width="6"/><ellipse cx="143.94" cy="75.71" rx="43.52" ry="43.51" fill="none" stroke="#007369" stroke-miterlimit="10" stroke-width="6"/><line x1="100.42" y1="75.71" x2="100.42" y2="0.04" fill="none" stroke="#007369" stroke-miterlimit="10" stroke-width="6"/><ellipse cx="94.7" cy="125.04" rx="43.52" ry="43.51" fill="none" stroke="#007369" stroke-miterlimit="10" stroke-width="6"/><line x1="94.69" y1="168.55" x2="19" y2="168.55" fill="none" stroke="#007369" stroke-miterlimit="10" stroke-width="6"/><path d="M230.33,94.75l-6.77,5.19a37,37,0,0,0-13.45-11.05,39.37,39.37,0,0,0-17.24-3.76,38.12,38.12,0,0,0-19,4.93,35.39,35.39,0,0,0-13.57,13.24,36.62,36.62,0,0,0-4.81,18.7q0,15.69,10.77,26.19t27.16,10.5q18,0,30.17-14.12l6.77,5.13a43.26,43.26,0,0,1-16,12.63,50.27,50.27,0,0,1-21.45,4.46q-22.53,0-35.54-15-10.91-12.66-10.91-30.57,0-18.84,13.22-31.71t33.12-12.86a48.62,48.62,0,0,1,21.71,4.75A42.15,42.15,0,0,1,230.33,94.75Z"/></svg>